<mxfile host="app.diagrams.net" agent="Mozilla/5.0 (Windows NT 10.0; Win64; x64) AppleWebKit/537.36 (KHTML, like Gecko) Chrome/132.0.0.0 Safari/537.36" version="26.0.12">
  <diagram name="Página-1" id="ZG89Vh-_nIyCFlYWtU8B">
    <mxGraphModel dx="3052" dy="2458" grid="1" gridSize="10" guides="1" tooltips="1" connect="1" arrows="1" fold="1" page="1" pageScale="1" pageWidth="1169" pageHeight="827" math="0" shadow="0">
      <root>
        <mxCell id="0" />
        <mxCell id="1" parent="0" />
        <mxCell id="Uvg-IymhiJ07D4PzWDys-4" value="" style="edgeStyle=none;curved=1;rounded=0;orthogonalLoop=1;jettySize=auto;html=1;fontSize=12;startSize=8;endSize=8;" parent="1" source="Uvg-IymhiJ07D4PzWDys-1" target="Uvg-IymhiJ07D4PzWDys-3" edge="1">
          <mxGeometry relative="1" as="geometry" />
        </mxCell>
        <mxCell id="Uvg-IymhiJ07D4PzWDys-1" value="&quot;valor de i = &quot;, i" style="shape=document;whiteSpace=wrap;html=1;boundedLbl=1;fillColor=#dae8fc;strokeColor=#6c8ebf;" parent="1" vertex="1">
          <mxGeometry x="-1866" y="-1290" width="120" height="80" as="geometry" />
        </mxCell>
        <mxCell id="Uvg-IymhiJ07D4PzWDys-6" value="" style="edgeStyle=none;curved=1;rounded=0;orthogonalLoop=1;jettySize=auto;html=1;fontSize=12;startSize=8;endSize=8;" parent="1" source="Uvg-IymhiJ07D4PzWDys-3" target="Uvg-IymhiJ07D4PzWDys-5" edge="1">
          <mxGeometry relative="1" as="geometry" />
        </mxCell>
        <mxCell id="Uvg-IymhiJ07D4PzWDys-3" value="i = i + 1" style="whiteSpace=wrap;html=1;fillColor=#dae8fc;strokeColor=#6c8ebf;" parent="1" vertex="1">
          <mxGeometry x="-1866" y="-1170.5" width="120" height="60" as="geometry" />
        </mxCell>
        <mxCell id="Uvg-IymhiJ07D4PzWDys-9" value="" style="edgeStyle=none;curved=1;rounded=0;orthogonalLoop=1;jettySize=auto;html=1;fontSize=12;startSize=8;endSize=8;" parent="1" source="Uvg-IymhiJ07D4PzWDys-5" target="Uvg-IymhiJ07D4PzWDys-8" edge="1">
          <mxGeometry relative="1" as="geometry" />
        </mxCell>
        <mxCell id="Uvg-IymhiJ07D4PzWDys-10" value="SIM" style="edgeLabel;html=1;align=center;verticalAlign=middle;resizable=0;points=[];fontSize=12;labelBackgroundColor=none;" parent="Uvg-IymhiJ07D4PzWDys-9" vertex="1" connectable="0">
          <mxGeometry x="-0.34" y="-2" relative="1" as="geometry">
            <mxPoint y="-12" as="offset" />
          </mxGeometry>
        </mxCell>
        <mxCell id="Uvg-IymhiJ07D4PzWDys-5" value="i &amp;gt; 5" style="rhombus;whiteSpace=wrap;html=1;fillColor=#dae8fc;strokeColor=#6c8ebf;" parent="1" vertex="1">
          <mxGeometry x="-1846" y="-1070" width="80" height="80" as="geometry" />
        </mxCell>
        <mxCell id="Uvg-IymhiJ07D4PzWDys-7" style="edgeStyle=none;curved=0;rounded=0;orthogonalLoop=1;jettySize=auto;html=1;entryX=-0.025;entryY=0.425;entryDx=0;entryDy=0;entryPerimeter=0;fontSize=12;startSize=8;endSize=8;" parent="1" source="Uvg-IymhiJ07D4PzWDys-5" target="Uvg-IymhiJ07D4PzWDys-1" edge="1">
          <mxGeometry relative="1" as="geometry">
            <Array as="points">
              <mxPoint x="-1903" y="-1030" />
              <mxPoint x="-1903" y="-1256" />
            </Array>
          </mxGeometry>
        </mxCell>
        <mxCell id="Uvg-IymhiJ07D4PzWDys-12" value="NÃO" style="edgeLabel;html=1;align=center;verticalAlign=middle;resizable=0;points=[];fontSize=12;labelBackgroundColor=none;" parent="Uvg-IymhiJ07D4PzWDys-7" vertex="1" connectable="0">
          <mxGeometry x="0.0682" y="1" relative="1" as="geometry">
            <mxPoint x="-19" as="offset" />
          </mxGeometry>
        </mxCell>
        <mxCell id="Uvg-IymhiJ07D4PzWDys-8" value="FIM" style="rounded=1;whiteSpace=wrap;html=1;fillColor=#dae8fc;strokeColor=#6c8ebf;" parent="1" vertex="1">
          <mxGeometry x="-1723" y="-1060" width="120" height="60" as="geometry" />
        </mxCell>
        <mxCell id="Uvg-IymhiJ07D4PzWDys-16" style="edgeStyle=none;curved=1;rounded=0;orthogonalLoop=1;jettySize=auto;html=1;entryX=0.5;entryY=0;entryDx=0;entryDy=0;fontSize=12;startSize=8;endSize=8;" parent="1" source="Uvg-IymhiJ07D4PzWDys-13" target="Uvg-IymhiJ07D4PzWDys-1" edge="1">
          <mxGeometry relative="1" as="geometry" />
        </mxCell>
        <mxCell id="Uvg-IymhiJ07D4PzWDys-13" value="i = 1" style="rounded=0;whiteSpace=wrap;html=1;fillColor=#dae8fc;strokeColor=#6c8ebf;" parent="1" vertex="1">
          <mxGeometry x="-1866" y="-1390" width="120" height="60" as="geometry" />
        </mxCell>
        <mxCell id="Uvg-IymhiJ07D4PzWDys-18" style="edgeStyle=none;curved=1;rounded=0;orthogonalLoop=1;jettySize=auto;html=1;entryX=0.5;entryY=0;entryDx=0;entryDy=0;fontSize=12;startSize=8;endSize=8;" parent="1" source="Uvg-IymhiJ07D4PzWDys-17" target="Uvg-IymhiJ07D4PzWDys-13" edge="1">
          <mxGeometry relative="1" as="geometry" />
        </mxCell>
        <mxCell id="Uvg-IymhiJ07D4PzWDys-17" value="INÍCIO" style="rounded=1;whiteSpace=wrap;html=1;fillColor=#dae8fc;strokeColor=#6c8ebf;" parent="1" vertex="1">
          <mxGeometry x="-1866" y="-1490" width="120" height="60" as="geometry" />
        </mxCell>
      </root>
    </mxGraphModel>
  </diagram>
</mxfile>
